<?xml version="1.0" encoding="UTF-8" standalone="no"?>
<svg
   xmlns:dc="http://purl.org/dc/elements/1.1/"
   xmlns:cc="http://creativecommons.org/ns#"
   xmlns:rdf="http://www.w3.org/1999/02/22-rdf-syntax-ns#"
   xmlns:svg="http://www.w3.org/2000/svg"
   xmlns="http://www.w3.org/2000/svg"
   xmlns:sodipodi="http://sodipodi.sourceforge.net/DTD/sodipodi-0.dtd"
   xmlns:inkscape="http://www.inkscape.org/namespaces/inkscape"
   width="19.575mm"
   height="19.575mm"
   version="1.1"
   viewBox="0 0 19.575 19.575"
   id="svg174"
   sodipodi:docname="orderflow.svg"
   inkscape:version="1.0.1 (c497b03c, 2020-09-10)">
  <defs
     id="defs178" />
  <sodipodi:namedview
     pagecolor="#ffffff"
     bordercolor="#666666"
     borderopacity="1"
     objecttolerance="10"
     gridtolerance="10"
     guidetolerance="10"
     inkscape:pageopacity="0"
     inkscape:pageshadow="2"
     inkscape:window-width="1280"
     inkscape:window-height="755"
     id="namedview176"
     showgrid="false"
     inkscape:zoom="2.7191175"
     inkscape:cx="3.2685169"
     inkscape:cy="34.937103"
     inkscape:window-x="0"
     inkscape:window-y="23"
     inkscape:window-maximized="0"
     inkscape:current-layer="svg174"
     inkscape:document-rotation="0" />
  <metadata
     id="metadata166">
    <rdf:RDF>
      <cc:Work
         rdf:about="">
        <dc:format>image/svg+xml</dc:format>
        <dc:type
           rdf:resource="http://purl.org/dc/dcmitype/StillImage" />
        <dc:title />
      </cc:Work>
    </rdf:RDF>
  </metadata>
  <rect
     x="4.1198732e-07"
     y="-4.8828124e-06"
     width="19.575001"
     height="19.575001"
     fill="#ff5555"
     stroke-width="0.26458"
     id="rect168"
     style="fill:#ff5555;fill-opacity:1" />
  <path
     d="M 11.456076,3.3833459 A 6.6234168,6.6234168 0 0 0 3.3891322,8.0787664 6.6234168,6.6234168 0 0 0 3.5033436,11.886843 L 6.159,10.353541 a 3.6715543,3.6715543 0 0 1 0.081743,-1.5107795 3.6715543,3.6715543 0 0 1 4.4466,-2.6097592 3.6715543,3.6715543 0 0 1 0.04964,0.013386 3.6715543,3.6715543 0 0 1 1.349821,0.6847483 L 14.741726,5.3982594 A 6.6234168,6.6234168 0 0 0 11.500882,3.3953616 6.6234168,6.6234168 0 0 0 11.456027,3.3833561 Z M 16.188257,8.093003 13.455998,9.6705028 A 3.6715543,3.6715543 0 0 1 13.333267,10.743347 3.6715543,3.6715543 0 0 1 8.8364149,13.339614 3.6715543,3.6715543 0 0 1 7.8459197,12.909478 l -2.7316203,1.577605 a 6.6234168,6.6234168 0 0 0 2.9582372,1.703505 6.6234168,6.6234168 0 0 0 8.1124164,-4.683203 6.6234168,6.6234168 0 0 0 0.0034,-3.4144458 z"
     fill="#ffffff"
     stroke-width="0.673491"
     id="path170"
     style="fill:#ffffff;fill-opacity:1" />
</svg>
